<?xml version="1.0" encoding="UTF-8" standalone="no"?>
<svg width="46px" height="46px" viewBox="0 0 46 46" version="1.1" xmlns="http://www.w3.org/2000/svg" xmlns:xlink="http://www.w3.org/1999/xlink">
    <!-- Generator: Sketch 43.1 (39012) - http://www.bohemiancoding.com/sketch -->
    <title>hamburger</title>
    <desc>Created with Sketch.</desc>
    <defs></defs>
    <g id="Page-1" stroke="none" stroke-width="1" fill="none" fill-rule="evenodd">
        <g id="hamburger">
            <path d="M12.4474432,14.1422503 C12.0738849,14.1594901 11.7380138,14.3724975 11.5663787,14.701016 C11.3947436,15.0295344 11.4134273,15.4236404 11.6153901,15.7348432 C11.8173529,16.0460461 12.1719033,16.2270536 12.5454545,16.2096661 L33.4545455,16.2096661 C33.8315739,16.2149383 34.1822669,16.0190759 34.3723372,15.6970784 C34.5624074,15.3750809 34.5624074,14.9768355 34.3723372,14.654838 C34.1822669,14.3328405 33.8315739,14.1369781 33.4545455,14.1422503 L12.5454545,14.1422503 C12.5128021,14.1407354 12.4800957,14.1407354 12.4474432,14.1422503 Z" id="Path" fill="#000000"></path>
            <path d="M12.4474432,21.8950593 C12.0738849,21.9122991 11.7380138,22.1253065 11.5663787,22.453825 C11.3947436,22.7823434 11.4134273,23.1764494 11.6153901,23.4876522 C11.8173529,23.798855 12.1719033,23.9798626 12.5454545,23.9624751 L33.4545455,23.9624751 C33.8315739,23.9677473 34.1822669,23.7718849 34.3723372,23.4498874 C34.5624074,23.1278899 34.5624074,22.7296445 34.3723372,22.407647 C34.1822669,22.0856495 33.8315739,21.8897871 33.4545455,21.8950593 L12.5454545,21.8950593 C12.5128021,21.8935444 12.4800957,21.8935444 12.4474432,21.8950593 Z" id="Path" fill="#000000"></path>
            <path d="M12.4474432,29.6478683 C12.0738849,29.6651081 11.7380138,29.8781155 11.5663787,30.2066339 C11.3947436,30.5351524 11.4134273,30.9292583 11.6153901,31.2404612 C11.8173529,31.551664 12.1719033,31.7326715 12.5454545,31.715284 L33.4545455,31.715284 C33.8315739,31.7205563 34.1822669,31.5246939 34.3723372,31.2026964 C34.5624074,30.8806989 34.5624074,30.4824535 34.3723372,30.160456 C34.1822669,29.8384585 33.8315739,29.6425961 33.4545455,29.6478683 L12.5454545,29.6478683 C12.5128021,29.6463534 12.4800957,29.6463534 12.4474432,29.6478683 L12.4474432,29.6478683 Z" id="Path" fill="#000000"></path>
            <circle id="Oval" stroke="#000000" stroke-width="2" cx="23" cy="23" r="22"></circle>
        </g>
    </g>
</svg>